<svg width="23" height="24" viewBox="0 0 23 24" fill="none" xmlns="http://www.w3.org/2000/svg">
<path d="M15.8085 22.3633V18.4933C15.846 18.0165 15.7816 17.5371 15.6195 17.0871C15.4574 16.6371 15.2014 16.2268 14.8685 15.8833C18.0085 15.5333 21.3085 14.3433 21.3085 8.88334C21.3082 7.48717 20.7712 6.14454 19.8085 5.13334C20.2643 3.91185 20.2321 2.56169 19.7185 1.36334C19.7185 1.36334 18.5385 1.01334 15.8085 2.84334C13.5165 2.22216 11.1005 2.22216 8.80847 2.84334C6.07847 1.01334 4.89847 1.36334 4.89847 1.36334C4.38485 2.56169 4.35262 3.91185 4.80847 5.13334C3.8386 6.15204 3.30099 7.5068 3.30847 8.91334C3.30847 14.3333 6.60847 15.5233 9.74847 15.9133C9.41947 16.2533 9.16574 16.6587 9.00378 17.1033C8.84183 17.5478 8.77528 18.0214 8.80847 18.4933V22.3633M8.80847 19.3633C3.80847 20.8633 3.80847 16.8633 1.80847 16.3633L8.80847 19.3633Z" stroke="#81C7DB" stroke-width="2" stroke-linecap="round" stroke-linejoin="round"/>
</svg>
